<svg height="512" viewBox="0 0 512.002 512.002" width="512" xmlns="http://www.w3.org/2000/svg"><path d="M492.25 285.422c2.591-4.877.738-10.931-4.139-13.523-56.033-29.776-124.386-22.635-172.942 17.266l-16.157-16.157 26.387-26.387c3.905-3.905 3.905-10.237 0-14.143-3.906-3.905-10.236-3.905-14.143 0l-26.387 26.387-64.381-64.381c14.644-19.639 23.857-42.707 26.762-67.27 3.347-28.316-1.98-56.64-15.408-81.907-2.591-4.877-8.647-6.729-13.523-4.138-4.877 2.592-6.729 8.646-4.138 13.523 21.538 40.53 18.167 88.656-8.007 125.478l-42.427-42.427c-5.953-5.953-14.415-8.423-22.637-6.612-8.222 1.813-14.86 7.614-17.758 15.519L1.532 478.982c-3.327 9.077-1.148 18.963 5.689 25.799 4.721 4.721 10.894 7.221 17.253 7.221 2.85 0 5.737-.503 8.546-1.532l332.33-121.821c7.905-2.897 13.706-9.536 15.52-17.757 1.812-8.222-.659-16.684-6.612-22.637l-44.86-44.861c42.253-33.714 101.034-39.497 149.329-13.833 4.876 2.592 10.93.738 13.523-4.139zM159.276 442.887l-90.161-90.161 24.982-68.151 133.33 133.33zM110.409 460.8l-59.207-59.207 10.326-28.169 77.05 77.05zm-84.273 30.891c-2.37.869-4.007-.287-4.774-1.052-.766-.766-1.921-2.404-1.052-4.773l23.304-63.575 46.096 46.096zm335.203-125.106c-.2.907-.839 2.54-2.871 3.285l-61.477 22.535-56.877-56.878c-3.905-3.906-10.237-3.905-14.142-.001-3.905 3.905-3.906 10.237-.001 14.142l50.322 50.323-28.169 10.326-146.44-146.44 10.326-28.169 50.323 50.322c1.952 1.953 4.512 2.929 7.071 2.929s5.119-.977 7.071-2.929c3.905-3.905 3.905-10.237-.001-14.142l-56.877-56.877 22.535-61.477c.745-2.032 2.378-2.671 3.286-2.872a4.823 4.823 0 011.034-.113c.919 0 2.09.272 3.154 1.337l210.51 210.51c1.53 1.531 1.423 3.282 1.223 4.189zM301.597 79.804c5.523 0 10-4.477 10-10 0-8.375 6.814-15.188 15.189-15.188 19.402 0 35.188-15.785 35.188-35.188 0-5.523-4.478-10-10-10s-10 4.477-10 10c0 8.375-6.814 15.188-15.188 15.188-19.403 0-35.189 15.785-35.189 35.188 0 5.523 4.478 10 10 10zm88.722 94.391c20.039 0 36.342-16.303 36.342-36.341 0-9.01 7.33-16.341 16.341-16.341 5.522 0 10-4.477 10-10s-4.478-10-10-10c-20.038 0-36.341 16.303-36.341 36.341 0 9.01-7.331 16.341-16.342 16.341-5.522 0-10 4.477-10 10s4.478 10 10 10zm57.683 19.29c0 17.645 14.355 32 32 32s32-14.355 32-32-14.355-32-32-32-32 14.355-32 32zm32-12c6.617 0 12 5.383 12 12s-5.383 12-12 12-12-5.383-12-12 5.383-12 12-12z" fill="currentColor"/><path d="M315.11 169.854c17.645 0 32-14.355 32-32s-14.355-32-32-32-32 14.355-32 32 14.356 32 32 32zm0-44c6.617 0 12 5.383 12 12s-5.383 12-12 12-12-5.383-12-12 5.383-12 12-12zM128.002 64c17.645 0 32-14.355 32-32s-14.355-32-32-32-32 14.355-32 32 14.355 32 32 32zm0-44c6.617 0 12 5.383 12 12s-5.383 12-12 12-12-5.383-12-12 5.383-12 12-12zm324.503 331.058c-3.904-3.905-10.234-3.905-14.143-.001-3.905 3.905-3.905 10.237 0 14.142l9.428 9.428c1.953 1.953 4.512 2.929 7.071 2.929s5.118-.977 7.071-2.929c3.905-3.905 3.905-10.237 0-14.142zm47.14 47.14c-3.906-3.905-10.236-3.905-14.143 0-3.905 3.905-3.905 10.237 0 14.143l9.428 9.428c1.953 1.953 4.512 2.929 7.071 2.929s5.118-.976 7.071-2.929c3.905-3.905 3.905-10.237 0-14.143zm-4.715-47.14l-9.428 9.428c-3.905 3.905-3.905 10.237 0 14.142 1.953 1.953 4.512 2.929 7.071 2.929s5.119-.977 7.071-2.929l9.428-9.428c3.905-3.905 3.905-10.237 0-14.142-3.905-3.906-10.237-3.905-14.142 0zm-47.14 47.14l-9.428 9.428c-3.905 3.905-3.905 10.237 0 14.143a9.968 9.968 0 007.071 2.929c2.56 0 5.118-.976 7.071-2.929l9.428-9.428c3.905-3.905 3.905-10.237 0-14.143-3.906-3.905-10.236-3.905-14.142 0zm44.784-368.77a9.966 9.966 0 007.071-2.929l9.428-9.428c3.905-3.905 3.905-10.237 0-14.142-3.906-3.905-10.238-3.905-14.143 0l-9.428 9.428c-3.905 3.905-3.905 10.237 0 14.142a9.97 9.97 0 007.072 2.929zm-47.141 47.14c2.56 0 5.118-.976 7.071-2.929l9.428-9.428c3.905-3.905 3.905-10.237 0-14.143-3.906-3.905-10.236-3.905-14.143 0l-9.428 9.428c-3.905 3.905-3.905 10.237 0 14.143a9.972 9.972 0 007.072 2.929zm54.212-26.499c-3.906-3.905-10.236-3.905-14.143 0-3.905 3.905-3.905 10.237 0 14.143l9.428 9.428c1.953 1.953 4.512 2.929 7.071 2.929s5.118-.976 7.071-2.929c3.905-3.905 3.905-10.237 0-14.143zm-51.855-23.57c1.953 1.953 4.512 2.929 7.071 2.929s5.118-.976 7.071-2.929c3.905-3.905 3.905-10.237 0-14.142l-9.428-9.428c-3.904-3.905-10.234-3.905-14.143 0-3.905 3.905-3.905 10.237 0 14.142zM201.221 300.78c-2.63 0-5.21 1.07-7.07 2.93s-2.93 4.44-2.93 7.07 1.07 5.21 2.93 7.07 4.44 2.93 7.07 2.93 5.21-1.07 7.07-2.93 2.93-4.44 2.93-7.07-1.07-5.21-2.93-7.07-4.44-2.93-7.07-2.93zm145.897-104.164l-7.25 7.25c-3.905 3.905-3.905 10.237 0 14.143 1.953 1.953 4.512 2.929 7.071 2.929s5.118-.976 7.071-2.929l7.25-7.25c3.905-3.905 3.905-10.237 0-14.143-3.906-3.905-10.236-3.905-14.142 0z" fill="currentColor"/></svg>