<svg xmlns="http://www.w3.org/2000/svg" width="24" height="24" viewBox="0 0 24 24"><path fill="currentColor" d="M8.713 18.042c-1.268.38-2.06.335-2.583.17a2.282 2.282 0 01-.614-.302c-.411-.284-.727-.675-1.119-1.172-.356-.451-.85-1.107-1.551-1.476a2.694 2.694 0 00-.604-.232 1 1 0 10-.485 1.941c.074.023.155.06.155.06.252.133.487.404.914.946.366.464.856 1.098 1.553 1.579.332.229.711.426 1.149.564 1.015.321 2.236.296 3.76-.162a1 1 0 10-.575-1.915zM17 22v-3.792a4.377 4.377 0 00-.292-1.942c.777-.171 1.563-.427 2.297-.823 2.083-1.124 3.496-3.242 3.496-6.923a6.408 6.408 0 00-1.379-3.981 6.044 6.044 0 00-.293-3.933 1 1 0 00-.634-.564c-.357-.106-1.732-.309-4.373 1.362a14.24 14.24 0 00-6.646-.002C6.537-.267 5.163-.064 4.806.042a.998.998 0 00-.635.565 6.044 6.044 0 00-.292 3.932A6.414 6.414 0 002.5 8.556c0 3.622 1.389 5.723 3.441 6.859.752.416 1.56.685 2.357.867a4.395 4.395 0 00-.299 1.88L8 22a1 1 0 002 0v-3.87l-.002-.069a2.357 2.357 0 01.661-1.816 1 1 0 00-.595-1.688c-.34-.042-.677-.094-1.006-.159-.79-.156-1.518-.385-2.147-.733-1.305-.723-2.391-2.071-2.41-5.042.013-1.241.419-2.319 1.224-3.165a1 1 0 00.212-1.04 4.045 4.045 0 01-.14-2.392c.491.107 1.354.416 2.647 1.282a1 1 0 00.825.133 12.229 12.229 0 016.47.002.994.994 0 00.818-.135c1.293-.866 2.156-1.175 2.647-1.282a4.041 4.041 0 01-.141 2.392c-.129.352-.058.755.213 1.04a4.419 4.419 0 011.224 3.06c0 3.075-1.114 4.445-2.445 5.163-.623.336-1.343.555-2.123.7-.322.06-.651.106-.983.143a1 1 0 00-.608 1.689 2.36 2.36 0 01.662 1.837l-.003.078V22a1 1 0 002 0z"/></svg>