<svg xmlns="http://www.w3.org/2000/svg" width="32" height="32" viewBox="0 0 32 32"><path fill="currentColor" d="M32 15.984C32 7.161 24.832 0 16 0S0 7.161 0 15.984c0 4.859 2.208 9.239 5.664 12.18.032.032.064.032.064.064.288.224.576.448.896.671.16.096.288.224.448.352C9.632 30.977 12.704 32 16.032 32s6.4-1.023 8.96-2.749c.16-.096.288-.224.448-.32.288-.224.608-.447.896-.671.032-.032.064-.032.064-.064 3.392-2.973 5.6-7.353 5.6-12.212zM16 29.986c-3.008 0-5.76-.959-8.032-2.557.032-.256.096-.512.16-.767.192-.703.48-1.375.832-1.982s.768-1.151 1.28-1.63a8.989 8.989 0 011.632-1.279c.608-.352 1.248-.607 1.952-.799s1.44-.288 2.176-.288a8.38 8.38 0 015.856 2.333 7.986 7.986 0 011.728 2.589c.224.575.384 1.183.48 1.822-2.304 1.598-5.056 2.557-8.064 2.557zm-4.896-14.801c-.288-.639-.416-1.343-.416-2.046s.128-1.407.416-2.046c.288-.639.672-1.215 1.152-1.694s1.056-.863 1.696-1.151A4.99 4.99 0 0116 7.832c.736 0 1.408.128 2.048.416s1.216.671 1.696 1.151.864 1.055 1.152 1.694.416 1.343.416 2.046c0 .735-.128 1.407-.416 2.046s-.672 1.215-1.152 1.694c-.48.48-1.056.863-1.696 1.151a5.434 5.434 0 01-4.128 0c-.64-.288-1.216-.671-1.696-1.151s-.864-1.055-1.12-1.694zm14.848 10.613c0-.064-.032-.096-.032-.16-.32-.991-.768-1.95-1.376-2.813s-1.312-1.63-2.176-2.27a10.45 10.45 0 00-2.08-1.215 5.64 5.64 0 00.928-.767c.48-.48.896-.991 1.248-1.566s.608-1.183.8-1.854c.192-.671.256-1.343.256-2.014 0-1.055-.192-2.046-.576-2.941s-.928-1.694-1.632-2.398c-.672-.671-1.504-1.215-2.4-1.598s-1.888-.575-2.944-.575-2.048.192-2.944.575-1.728.927-2.4 1.63c-.672.671-1.216 1.503-1.6 2.398s-.576 1.886-.576 2.941c0 .703.096 1.375.288 2.014.192.671.448 1.279.8 1.854.32.575.768 1.087 1.248 1.566.288.288.608.543.96.767-.768.352-1.472.767-2.08 1.247a11.085 11.085 0 00-2.176 2.238 9.997 9.997 0 00-1.376 2.813c-.032.064-.032.128-.032.16-2.528-2.557-4.096-6.01-4.096-9.846C1.984 8.28 8.288 1.982 16 1.982S30.016 8.28 30.016 15.984c0 3.836-1.568 7.289-4.064 9.814z"/></svg>