<svg xmlns="http://www.w3.org/2000/svg" width="32" height="32" viewBox="0 0 32 32"><path fill="currentColor" d="M14.587 18l-1.76 1.76a4.973 4.973 0 00-9.654 0L1.413 18 0 19.413l2.293 2.293-.293.293v2H0v2h2v.107c.102.652.286 1.288.547 1.893L0 30.586l1.413 1.413 2.2-2.2A5.744 5.744 0 008 31.999a5.75 5.75 0 004.387-2.2l2.2 2.2L16 30.586l-2.547-2.587A7.873 7.873 0 0014 26.066v-.133h2V24h-2v-2l-.293-.293L16 19.414l-1.413-1.413zM8 18a3.004 3.004 0 013 3H5a3.004 3.004 0 013-3zm4 8a4.446 4.446 0 01-4 4 4.44 4.44 0 01-4-4v-3h8v3zm19.68-13.2v1.68L18 23.16V20.8l11.333-7.16L12 2.667V15.28a6.764 6.764 0 00-2-.96V.84L11.52 0l20.16 12.8z"/></svg>