<svg xmlns="http://www.w3.org/2000/svg" width="32" height="32" viewBox="0 0 32 32"><path fill="currentColor" d="M26.467 11.667L32 12.774v6.453l-5.533 1.107 3.133 4.693-4.573 4.573-4.693-3.133L19.227 32h-6.453l-1.107-5.533L6.974 29.6l-4.573-4.573 3.133-4.693-5.533-1.107v-6.453l5.533-1.107-3.133-4.693 4.573-4.573 4.693 3.133L12.774.001h6.453l1.107 5.533 4.693-3.133L29.6 6.974l-3.133 4.693zm-2.093 6.76l5.333-1.08V14.68l-5.333-1.08-.72-1.733 3.053-4.573L24.8 5.387 20.227 8.44l-1.733-.72-1.08-5.333h-2.667l-1.08 5.333-1.733.72-4.573-3.053-1.907 1.907 3.053 4.573-.72 1.733-5.333 1.08v2.667l5.333 1.08.72 1.733-3.053 4.573 1.907 1.907 4.573-3.053 1.733.72 1.08 5.333h2.667l1.08-5.333 1.733-.72L24.8 26.64l1.907-1.907-3.053-4.573.72-1.733zm-10.915-6.23A4.57 4.57 0 0116 11.426a4.582 4.582 0 014.573 4.573 4.57 4.57 0 01-2.823 4.225 4.572 4.572 0 01-4.985-.992 4.578 4.578 0 01-.992-4.984 4.572 4.572 0 011.684-2.052zm1.275 5.699c.375.251.816.384 1.267.384a2.265 2.265 0 002.281-2.281 2.285 2.285 0 00-1.407-2.107 2.276 2.276 0 00-2.484.494 2.28 2.28 0 00.346 3.507z"/></svg>