<svg xmlns="http://www.w3.org/2000/svg" width="32" height="32" viewBox="0 0 32 32"><path fill="currentColor" d="M28.009 10.962a4.99 4.99 0 00-2.731-4.469 4.984 4.984 0 10-3.677 9.22 3.986 3.986 0 01-3.557 2.226h-3.986a5.937 5.937 0 00-3.986 1.555V9.866a4.982 4.982 0 10-1.992 0v12.157a5.037 5.037 0 00-4.077 5.284 5.032 5.032 0 008.15 3.606 5.032 5.032 0 001.168-6.571 5.031 5.031 0 00-2.819-2.187 3.99 3.99 0 013.558-2.222h3.986a5.982 5.982 0 005.632-4.051 4.978 4.978 0 004.332-4.917zM6.087 4.983A2.988 2.988 0 019.66 2.051a2.988 2.988 0 012.179 4.076 2.99 2.99 0 01-5.752-1.144zm5.979 21.923a2.988 2.988 0 01-3.573 2.932 2.988 2.988 0 01-2.179-4.076 2.99 2.99 0 015.752 1.144zm10.961-12.954a2.988 2.988 0 01-2.932-3.573A2.988 2.988 0 0124.171 8.2a2.99 2.99 0 01-1.144 5.752z"/></svg>