<svg xmlns="http://www.w3.org/2000/svg" width="24" height="24" viewBox="0 0 24 24"><path fill="currentColor" d="M6 5h12c.276 0 .525.111.707.293S19 5.724 19 6v12c0 .276-.111.525-.293.707S18.276 19 18 19H6c-.276 0-.525-.111-.707-.293S5 18.276 5 18V6c0-.276.111-.525.293-.707S5.724 5 6 5zm3 3a1 1 0 00-1 1v6a1 1 0 001 1h6a1 1 0 001-1V9a1 1 0 00-1-1zm1 2h4v4h-4zm-9 5h2v3a2.997 2.997 0 003 3h2v2a1 1 0 002 0v-2h4v2a1 1 0 002 0v-2h2a2.997 2.997 0 003-3v-3h2a1 1 0 000-2h-2v-3h2a1 1 0 000-2h-2V6a2.997 2.997 0 00-3-3h-2V1a1 1 0 00-2 0v2h-4V1a1 1 0 00-2 0v2H6a2.997 2.997 0 00-3 3v2H1a1 1 0 000 2h2v3H1a1 1 0 000 2z"/></svg>