<svg xmlns="http://www.w3.org/2000/svg" width="24" height="24" viewBox="0 0 24 24"><path fill="currentColor" d="M4.453 9.334C5.19 7.251 6.7 5.665 8.549 4.782s4.032-1.059 6.114-.322a7.87 7.87 0 012.983 1.88L20.476 9H17a1 1 0 000 2h6.011a.992.992 0 00.71-.307l.036-.039a.99.99 0 00.242-.611L24 10V4a1 1 0 00-2 0v3.689L19.074 4.94a9.874 9.874 0 00-3.743-2.364c-2.603-.921-5.335-.699-7.643.402s-4.199 3.086-5.12 5.689a1 1 0 101.884.667zM2 16.312l2.955 2.777c1.929 1.931 4.49 2.908 7.048 2.909s5.119-.975 7.072-2.927a9.877 9.877 0 002.361-3.745 1 1 0 10-1.892-.65 7.872 7.872 0 01-1.883 2.981c-1.563 1.562-3.609 2.342-5.657 2.342s-4.094-.782-5.679-2.366L3.525 15H7a1 1 0 000-2H.989a.992.992 0 00-.71.307l-.036.039a.99.99 0 00-.242.611L0 14v6a1 1 0 002 0z"/></svg>