<svg xmlns="http://www.w3.org/2000/svg" width="24" height="24" viewBox="0 0 24 24"><path fill="currentColor" d="M15 15H2V4h13v4zm2-6h2.586L22 11.414V15h-5zM7 18.5A1.497 1.497 0 015.5 20 1.497 1.497 0 014 18.5 1.497 1.497 0 015.5 17 1.497 1.497 0 017 18.5zm15 0c0-.537-.121-1.045-.337-1.5H23a1 1 0 001-1v-5a.997.997 0 00-.293-.707l-3-3A.997.997 0 0020 7h-3V3a1 1 0 00-1-1H1a1 1 0 00-1 1v13a1 1 0 001 1h1.337A3.487 3.487 0 002 18.5c0 .966.393 1.843 1.025 2.475S4.534 22 5.5 22s1.843-.393 2.475-1.025S9 19.466 9 18.5c0-.537-.121-1.045-.337-1.5h6.674A3.487 3.487 0 0015 18.5c0 .966.393 1.843 1.025 2.475S17.534 22 18.5 22s1.843-.393 2.475-1.025S22 19.466 22 18.5zm-2 0a1.497 1.497 0 01-1.5 1.5 1.497 1.497 0 01-1.5-1.5 1.497 1.497 0 011.5-1.5 1.497 1.497 0 011.5 1.5z"/></svg>