<svg width="256" height="256" viewBox="0 0 256 256" fill="none" xmlns="http://www.w3.org/2000/svg"><g clip-path="url(#clip0_5_2)"><path d="M84.124 1.508a11.869 11.869 0 016.079 10.365l.114 104.346h37.485a50.648 50.648 0 11-50.64 50.648l-.045-37.432h-24.91v37.432c0 41.749 33.846 75.594 75.595 75.594 41.75 0 75.594-33.845 75.594-75.594 0-41.75-33.844-75.595-75.594-75.595h-11.457a6.604 6.604 0 010-13.207h11.457c49.044 0 88.802 39.757 88.802 88.802 0 49.044-39.758 88.802-88.802 88.802-49.021-.055-88.747-39.78-88.802-88.802v-44.036a6.614 6.614 0 016.604-6.612h31.497L76.995 14.27 52.208 29.525v58.05a6.604 6.604 0 11-13.208 0V28.771a11.922 11.922 0 015.653-10.111L72.11 1.762a11.869 11.869 0 0112.013-.254zm43.64 127.927H90.332v37.424a37.435 37.435 0 0044.73 36.722 37.434 37.434 0 0027.286-51.037 37.431 37.431 0 00-34.584-23.109zm.038 26.842c5.849 0 10.591 4.741 10.591 10.59 0 5.848-4.742 10.59-10.591 10.59-5.848 0-10.59-4.742-10.59-10.59 0-5.849 4.741-10.591 10.59-10.591v.001z" fill="currentColor"/></g><defs><clipPath id="clip0_5_2"><path fill="#fff" transform="translate(39)" d="M0 0h177.604v256H0z"/></clipPath></defs></svg>