<svg width="100" height="100" viewBox="0 0 100 100" fill="none" xmlns="http://www.w3.org/2000/svg"><g clip-path="url(#clip0_2_2)"><path d="M32.627.59A4.636 4.636 0 0135 4.637l.044 40.76h14.643a19.785 19.785 0 11-19.78 19.784l-.019-14.622h-9.73v14.622c0 16.309 13.22 29.53 29.53 29.53 16.308 0 29.528-13.221 29.528-29.53 0-16.308-13.22-29.529-29.529-29.529h-4.475a2.58 2.58 0 010-5.159h4.475c19.158 0 34.689 15.53 34.689 34.688s-15.53 34.689-34.689 34.689C30.54 99.849 15.021 84.33 15 65.182V47.981a2.583 2.583 0 012.58-2.583h12.303l-.041-39.824-9.683 5.96v22.675a2.58 2.58 0 11-5.159 0v-22.97a4.657 4.657 0 012.208-3.95l10.726-6.6a4.636 4.636 0 014.693-.1zm17.046 49.97H35.051v14.62a14.622 14.622 0 1014.622-14.62zm.015 10.486a4.137 4.137 0 110 8.274 4.137 4.137 0 010-8.275z" fill="#000"/></g><defs><clipPath id="clip0_2_2"><path fill="#fff" transform="translate(15)" d="M0 0h69.377v100H0z"/></clipPath></defs></svg>