<svg width="1222" height="1198" viewBox="0 0 1222 1198" fill="none" xmlns="http://www.w3.org/2000/svg"><rect x="23" y="28" width="90" height="28" rx="14" fill="var(--mock-vscode-code-primary)"/><rect x="271" y="28" width="58" height="28" rx="14" fill="var(--mock-vscode-code-primary)"/><rect x="343" y="28" width="157" height="28" rx="14" fill="var(--mock-vscode-code-secondary"/><rect x="298" y="64" width="62" height="28" rx="14" fill="var(--mock-vscode-code-primary)"/><rect x="399" y="100" width="62" height="28" rx="14" fill="var(--mock-vscode-code-primary)"/><rect x="368" y="136" width="62" height="28" rx="14" fill="var(--mock-vscode-code-primary)"/><rect x="355" y="172" width="62" height="28" rx="14" fill="var(--mock-vscode-code-primary)"/><rect x="372" y="64" width="183" height="28" rx="14" fill="var(--mock-vscode-code-secondary"/><rect x="473" y="100" width="300" height="28" rx="14" fill="var(--mock-vscode-code-secondary"/><rect x="442" y="136" width="272" height="28" rx="14" fill="var(--mock-vscode-code-secondary"/><rect x="429" y="172" width="243" height="28" rx="14" fill="var(--mock-vscode-code-secondary"/><rect x="23" y="64" width="90" height="28" rx="14" fill="var(--mock-vscode-code-primary)"/><rect x="23" y="100" width="90" height="28" rx="14" fill="var(--mock-vscode-code-primary)"/><rect x="23" y="136" width="90" height="28" rx="14" fill="var(--mock-vscode-code-primary)"/><rect x="23" y="172" width="90" height="28" rx="14" fill="var(--mock-vscode-code-primary)"/><rect x="23" y="244" width="90" height="28" rx="14" fill="var(--mock-vscode-code-primary)"/><rect x="53" y="280" width="90" height="28" rx="14" fill="var(--mock-vscode-code-primary)"/><rect x="83" y="316" width="448" height="28" rx="14" fill="var(--mock-vscode-code-primary)"/><rect x="112" y="352" width="101" height="28" rx="14" fill="var(--mock-vscode-code-primary)"/><rect x="140" y="388" width="233" height="28" rx="14" fill="var(--mock-vscode-code-primary)"/><rect x="169" y="424" width="57" height="28" rx="14" fill="var(--mock-vscode-code-primary)"/><rect x="169" y="460" width="44" height="28" rx="14" fill="var(--mock-vscode-code-primary)"/><rect x="198" y="532" width="34" height="28" rx="14" fill="var(--mock-vscode-code-primary)"/><rect x="196" y="748" width="63" height="28" rx="14" fill="var(--mock-vscode-code-primary)"/><rect x="169" y="856" width="63" height="28" rx="14" fill="var(--mock-vscode-code-primary)"/><rect x="140" y="892" width="246" height="28" rx="14" fill="var(--mock-vscode-code-primary)"/><rect x="140" y="928" width="203" height="28" rx="14" fill="var(--mock-vscode-code-primary)"/><rect x="169" y="964" width="217" height="28" rx="14" fill="var(--mock-vscode-code-primary)"/><rect x="141" y="1000" width="217" height="28" rx="14" fill="var(--mock-vscode-code-primary)"/><rect x="112" y="1036" width="120" height="28" rx="14" fill="var(--mock-vscode-code-primary)"/><rect x="83" y="1072" width="143" height="28" rx="14" fill="var(--mock-vscode-code-primary)"/><rect x="196" y="784" width="991" height="28" rx="14" fill="var(--mock-vscode-code-text)"/><rect x="196" y="820" width="190" height="28" rx="14" fill="var(--mock-vscode-code-text)"/><rect x="226" y="676" width="72" height="28" rx="14" fill="var(--mock-vscode-code-text)"/><rect x="226" y="604" width="86" height="28" rx="14" fill="var(--mock-vscode-code-primary-alt"/><rect x="226" y="640" width="47" height="28" rx="14" fill="var(--mock-vscode-code-primary-alt"/><rect x="285" y="640" width="303" height="28" rx="14" fill="var(--mock-vscode-code-secondary"/><rect x="310" y="676" width="373" height="28" rx="14" fill="var(--mock-vscode-code-text)"/><rect x="226" y="568" width="60" height="28" rx="14" fill="var(--mock-vscode-code-primary-alt"/><rect x="198" y="496" width="408" height="28" rx="14" fill="var(--mock-vscode-code-text)"/><rect x="298" y="568" width="651" height="28" rx="14" fill="var(--mock-vscode-code-secondary"/><rect x="324" y="604" width="123" height="28" rx="14" fill="var(--mock-vscode-code-secondary"/><rect x="226" y="712" width="262" height="28" rx="14" fill="var(--mock-vscode-code-text)"/><rect x="659" y="424" width="73" height="28" rx="14" fill="var(--mock-vscode-code-primary)"/><rect x="238" y="424" width="409" height="28" rx="14" fill="var(--mock-vscode-code-text)"/><rect x="125" y="244" width="118" height="28" rx="14" fill="var(--mock-vscode-code-primary)"/><rect x="255" y="244" width="331" height="28" rx="14" fill="var(--mock-vscode-code-text)"/><rect x="598" y="244" width="28" height="28" rx="14" fill="var(--mock-vscode-code-text)"/><rect x="53" y="1108" width="28" height="28" rx="14" fill="var(--mock-vscode-code-text)"/><rect x="23" y="1144" width="28" height="28" rx="14" fill="var(--mock-vscode-code-text)"/><rect x="155" y="280" width="28" height="28" rx="14" fill="var(--mock-vscode-code-text)"/><rect x="125" y="172" width="218" height="28" rx="14" fill="var(--mock-vscode-code-text)"/><rect x="125" y="136" width="231" height="28" rx="14" fill="var(--mock-vscode-code-text)"/><rect x="125" y="100" width="262" height="28" rx="14" fill="var(--mock-vscode-code-text)"/><rect x="125" y="64" width="161" height="28" rx="14" fill="var(--mock-vscode-code-text)"/><rect x="125" y="28" width="134" height="28" rx="14" fill="var(--mock-vscode-code-text)"/></svg>