<svg height="512" viewBox="0 0 511.434 511.434" width="512" xmlns="http://www.w3.org/2000/svg"><path fill="currentColor" d="M318.431 301.822c3.034 1.765 6.367 2.647 9.702 2.647 3.299 0 6.598-.864 9.61-2.592 6.057-3.476 9.683-9.72 9.697-16.694l.007-2.124h54.745c9.821 18.194 29.061 30.586 51.143 30.586 32.031 0 58.09-26.059 58.09-58.09 0-9.61-2.396-19.128-6.931-27.524a7.501 7.501 0 00-13.199 7.128c3.356 6.213 5.13 13.266 5.13 20.396 0 23.76-19.33 43.09-43.09 43.09-23.755 0-43.08-19.33-43.08-43.09 0-23.754 19.325-43.08 43.08-43.08 6.986 0 13.909 1.703 20.022 4.925a7.5 7.5 0 006.994-13.27c-8.261-4.354-17.603-6.655-27.017-6.655-22.084 0-41.325 12.391-51.145 30.584h-54.603l.004-1.785c.023-6.982-3.568-13.246-9.607-16.753-6.037-3.508-13.256-3.524-19.307-.046l-51.085 29.327c-6.052 3.467-9.679 9.701-9.703 16.676-.024 6.983 3.563 13.25 9.605 16.768zm-43.376-50.009l51.095-29.333c1.939-1.116 3.653-.364 4.301.011.646.375 2.148 1.49 2.141 3.741l-.018 8.088a7.5 7.5 0 006.666 8.704l.1.01c.369.037.738.044 1.106.026h56.178a58.033 58.033 0 00-1.368 12.496c0 4.293.482 8.474 1.37 12.504h-56.654a7.5 7.5 0 00-7.5 7.477l-.03 9.607c-.005 2.243-1.515 3.352-2.163 3.724-.649.373-2.367 1.116-4.31-.014l-50.934-29.575c-1.944-1.132-2.148-2.999-2.146-3.749.002-.747.217-2.601 2.166-3.717zm-10.184-134.201c22.083 0 41.324-12.39 51.146-30.581h97.547a21.68 21.68 0 0119.882 12.939l-.309.001c-6.982.015-13.226 3.641-16.701 9.698-3.476 6.057-3.455 13.276.053 19.309l29.584 50.947c3.501 6.015 9.737 9.599 16.692 9.599h.07c6.975-.024 13.209-3.652 16.672-9.698l29.328-51.086c3.48-6.053 3.464-13.272-.043-19.311-3.497-6.02-9.73-9.607-16.678-9.607h-.066l-2.304.005c-2.007-17.345-9.838-33.398-22.479-45.812-14.438-14.176-33.51-21.983-53.701-21.983H316.02c-9.821-18.195-29.063-30.587-51.149-30.587-32.028 0-58.085 26.057-58.085 58.084s26.057 58.083 58.085 58.083zm148.692-70.581c33.345 0 61.015 27.122 61.682 60.46a7.498 7.498 0 007.498 7.35h.017l9.329-.02h.017c2.23 0 3.341 1.496 3.715 2.141.375.646 1.128 2.358.009 4.305l-29.334 51.096c-1.112 1.942-2.967 2.158-3.713 2.16h-.014c-.759 0-2.608-.213-3.729-2.138l-29.582-50.944c-1.128-1.94-.384-3.658-.012-4.307.373-.649 1.48-2.159 3.731-2.164l9.6-.03a7.5 7.5 0 007.468-7.833c-.874-19.669-16.986-35.077-36.682-35.077h-91.978c.888-4.03 1.37-8.21 1.37-12.503 0-4.291-.482-8.469-1.369-12.497h91.977zM264.871 16.444c23.757 0 43.084 19.328 43.084 43.084s-19.327 43.084-43.084 43.084-43.085-19.328-43.085-43.084c0-23.757 19.328-43.084 43.085-43.084zM31.923 375.847c3.467 6.052 9.701 9.68 16.676 9.704h.071c6.955 0 13.191-3.584 16.697-9.606l29.578-50.937c3.509-6.036 3.529-13.256.054-19.312-3.476-6.057-9.719-9.682-16.694-9.697l-.315-.001a21.68 21.68 0 0119.882-12.939h36.957c9.822 18.192 29.063 30.583 51.147 30.583 32.028 0 58.084-26.057 58.084-58.084s-26.057-58.084-58.084-58.084c-22.085 0-41.328 12.392-51.149 30.586H97.871c-20.191 0-39.263 7.807-53.701 21.983-12.642 12.413-20.473 28.467-22.48 45.812l-2.294-.005c-6.975.014-13.246 3.568-16.753 9.607s-3.524 13.257-.046 19.307zm154.052-163.375c23.757 0 43.084 19.328 43.084 43.084s-19.328 43.084-43.084 43.084-43.084-19.328-43.084-43.084 19.327-43.084 43.084-43.084zM15.613 312.99c.375-.645 1.485-2.141 3.725-2.141h.017l9.32.02h.017a7.5 7.5 0 007.498-7.35c.667-33.338 28.336-60.46 61.681-60.46h31.388a58.045 58.045 0 00-1.369 12.498c0 4.292.482 8.472 1.37 12.502H97.871c-19.695 0-35.808 15.408-36.683 35.077a7.498 7.498 0 007.469 7.833l9.607.03c2.244.005 3.352 1.515 3.724 2.164.373.648 1.117 2.367-.013 4.311l-29.576 50.932c-1.125 1.933-2.975 2.146-3.734 2.146h-.014c-.746-.003-2.6-.219-3.716-2.167L15.603 317.29c-1.117-1.942-.365-3.654.01-4.3zm228.328 122.218l-50.937-29.578c-6.037-3.51-13.256-3.529-19.312-.054-6.057 3.476-9.682 9.719-9.698 16.694l-.006 2.124h-54.75c-9.822-18.19-29.062-30.578-51.145-30.578-32.028 0-58.084 26.056-58.084 58.084s26.057 58.084 58.084 58.084c22.087 0 41.33-12.394 51.151-30.59h54.604l-.004 1.786c-.023 6.983 3.569 13.246 9.608 16.753 3.033 1.761 6.363 2.642 9.693 2.642 3.301 0 6.603-.865 9.615-2.597l9.21-5.29a7.501 7.501 0 00-7.47-13.008l-9.213 5.292c-1.942 1.118-3.654.365-4.301-.01-.646-.375-2.148-1.491-2.141-3.741l.018-8.085a7.5 7.5 0 00-6.633-8.702l-.1-.01a7.477 7.477 0 00-1.148-.029h-56.17a58.078 58.078 0 001.368-12.494c0-4.294-.482-8.475-1.371-12.506h56.657a7.5 7.5 0 007.5-7.477l.03-9.607c.005-2.244 1.515-3.352 2.164-3.724.648-.372 2.366-1.118 4.311.013l50.933 29.576c1.945 1.132 2.148 2.998 2.146 3.748-.002.746-.218 2.6-2.167 3.716l-15.87 9.11a7.5 7.5 0 007.467 13.009l15.864-9.106c6.052-3.467 9.68-9.702 9.705-16.677.023-6.984-3.566-13.251-9.608-16.768zM58.094 494.985c-23.757 0-43.084-19.328-43.084-43.084s19.328-43.084 43.084-43.084 43.084 19.328 43.084 43.084-19.327 43.084-43.084 43.084zM479.509 331.61c-3.468-6.052-9.702-9.679-16.677-9.704h-.07c-6.954 0-13.19 3.584-16.696 9.606l-29.578 50.937c-3.51 6.036-3.53 13.255-.055 19.312 3.476 6.057 9.719 9.682 16.694 9.698l.315.001a21.68 21.68 0 01-19.882 12.939h-36.962c-9.822-18.189-29.062-30.577-51.143-30.577-32.027 0-58.084 26.057-58.084 58.084s26.057 58.084 58.084 58.084c22.087 0 41.331-12.395 51.151-30.592h36.955c20.191 0 39.263-7.807 53.701-21.983 12.642-12.413 20.473-28.467 22.479-45.812l2.294.005h.067c6.956 0 13.189-3.587 16.686-9.607 3.508-6.038 3.524-13.257.047-19.307zM325.455 494.99c-23.757 0-43.084-19.328-43.084-43.084s19.327-43.084 43.084-43.084 43.084 19.328 43.084 43.084-19.327 43.084-43.084 43.084zm170.362-100.523c-.374.645-1.484 2.141-3.724 2.141h-.018l-9.32-.02h-.016a7.5 7.5 0 00-7.498 7.35c-.667 33.338-28.337 60.46-61.682 60.46H382.17a58.068 58.068 0 001.368-12.493c0-4.294-.482-8.476-1.371-12.507h31.392c19.694 0 35.808-15.407 36.683-35.076a7.498 7.498 0 00-7.468-7.834l-9.607-.03c-2.244-.005-3.352-1.515-3.725-2.164-.372-.648-1.116-2.367.014-4.31l29.576-50.933c1.132-1.945 2.958-2.133 3.748-2.146.745.002 2.601.218 3.717 2.166l29.332 51.094c1.116 1.944.364 3.656-.012 4.302z"/></svg>