<svg height="512" viewBox="0 0 512 512" width="512" xmlns="http://www.w3.org/2000/svg"><path fill="currentColor" d="M278.82 176.396V153.46c0-12.583-10.237-22.82-22.82-22.82s-22.82 10.237-22.82 22.82v22.936c-9.278 6.958-15.292 18.042-15.292 30.505 0 21.015 17.097 38.111 38.111 38.111s38.111-17.097 38.111-38.111c.001-12.463-6.013-23.547-15.29-30.505zm-30.64-22.936c0-4.312 3.508-7.82 7.82-7.82s7.82 3.508 7.82 7.82v16.14a38.1 38.1 0 00-15.64 0zm7.82 76.552c-12.744 0-23.111-10.368-23.111-23.111S243.256 183.79 256 183.79s23.111 10.368 23.111 23.111-10.367 23.111-23.111 23.111zm-60.352-94.069a7.5 7.5 0 00-10.606 0 7.5 7.5 0 000 10.606l9.027 9.027c1.464 1.464 3.384 2.197 5.303 2.197s3.839-.732 5.303-2.197a7.5 7.5 0 000-10.606zm120.704 141.916c1.464 1.464 3.384 2.197 5.303 2.197s3.839-.732 5.303-2.197a7.5 7.5 0 000-10.606l-9.027-9.027a7.5 7.5 0 00-10.606 0 7.5 7.5 0 000 10.606zm-3.725-120.086a7.474 7.474 0 005.303-2.197l9.027-9.027a7.5 7.5 0 000-10.606 7.5 7.5 0 00-10.606 0l-9.027 9.027a7.5 7.5 0 005.303 12.803zM194.069 258.225l-9.027 9.027a7.5 7.5 0 005.303 12.803 7.474 7.474 0 005.303-2.197l9.027-9.027a7.5 7.5 0 000-10.606 7.5 7.5 0 00-10.606 0z"/><path fill="currentColor" d="M508.705 205.22L448.3 164.317a7.48 7.48 0 00-4.2-1.273v-.02h-31.896c-19.186-68.21-81.948-118.361-156.207-118.361-31.846 0-61.575 9.23-86.663 25.146l-8.903-8.903 2.032-2.032c13.178-13.177 13.178-34.619 0-47.797-6.382-6.381-14.872-9.896-23.903-9.896-9.038 0-17.525 3.517-23.893 9.896l-43.89 43.89a7.5 7.5 0 000 10.606 7.5 7.5 0 0010.606 0l43.895-43.895c3.539-3.545 8.256-5.498 13.282-5.498 5.025 0 9.748 1.955 13.297 5.503 7.329 7.329 7.329 19.254 0 26.583l-54.496 54.496c-3.538 3.545-8.255 5.498-13.281 5.498s-9.748-1.954-13.296-5.503A18.736 18.736 0 0165.68 85.61a7.5 7.5 0 00-14.681-3.079 33.689 33.689 0 009.177 30.833c6.382 6.382 14.871 9.896 23.903 9.896 9.039 0 17.526-3.517 23.893-9.896l2.031-2.031 8.902 8.902a161.495 161.495 0 00-19.116 42.79H67.9v.019a7.473 7.473 0 00-4.2 1.274L3.295 205.22A7.498 7.498 0 000 211.43V345.4a7.5 7.5 0 0011.706 6.21L60.4 318.637V480.31c0 16.823 13.691 30.51 30.52 30.51h275.53a7.5 7.5 0 000-15H90.92c-8.558 0-15.52-6.958-15.52-15.51V312h361.2v168.31c0 8.552-6.962 15.51-15.52 15.51h-24.63a7.5 7.5 0 000 15h24.63c16.829 0 30.52-13.687 30.52-30.51V318.637l48.695 32.974a7.499 7.499 0 0011.706-6.21V211.43a7.501 7.501 0 00-3.296-6.21zm-358.459 1.683c0-58.317 47.44-105.762 105.752-105.762 58.317 0 105.762 47.444 105.762 105.762 0 36.593-19.259 70.917-50.382 90.09h-110.75c-31.123-19.172-50.382-53.497-50.382-90.09zm286.349-28.879v118.97h-45.671c17.695-26.527 27.314-57.989 27.314-90.09 0-9.854-.885-19.505-2.577-28.879h20.934zm-315.984-77.299l14.607-14.607 14.609-14.605 7.046 7.046a163.6 163.6 0 00-29.214 29.213zm135.387-41.062c81.188 0 147.24 66.052 147.24 147.24 0 32.574-10.905 64.422-30.772 90.09H336.37c25.335-22.694 40.39-55.508 40.39-90.09 0-66.588-54.173-120.762-120.762-120.762-66.583 0-120.752 54.173-120.752 120.762 0 34.582 15.055 67.397 40.39 90.09h-36.098c-19.872-25.664-30.781-57.512-30.781-90.09 0-81.188 66.052-147.24 147.241-147.24zm-134.92 237.331H75.405v-118.97h20.929a162.577 162.577 0 00-2.577 28.879c0 32.106 9.621 63.567 27.321 90.091zM15 215.409l45.405-30.746v115.855L15 331.264zm482 115.855l-45.405-30.746V184.663L497 215.409z"/></svg>